<svg id="user" xmlns="http://www.w3.org/2000/svg" width="42" height="42" viewBox="0 0 42 42">
  <path id="Path_39295" data-name="Path 39295" d="M69,48A21,21,0,1,0,90,69,21,21,0,0,0,69,48Zm0,40.253a19.223,19.223,0,0,1-14.75-6.9c1.8-.777,6.28-2.393,9.117-3.221.222-.071.263-.081.263-1.08a5.64,5.64,0,0,0-.384-2.383,12.1,12.1,0,0,1-.929-3.19,7.2,7.2,0,0,1-1.373-3.322,4.431,4.431,0,0,1,.04-2.787,1.279,1.279,0,0,0,.061-.182,18.193,18.193,0,0,0-.313-3.917A7.183,7.183,0,0,1,62.246,56.1,7.688,7.688,0,0,1,68.1,53.27h1.767A7.717,7.717,0,0,1,75.775,56.1a7.118,7.118,0,0,1,1.5,5.179,18.156,18.156,0,0,0-.313,3.917.858.858,0,0,0,.061.172,4.356,4.356,0,0,1,.04,2.787,7.2,7.2,0,0,1-1.373,3.322,12.22,12.22,0,0,1-.929,3.19,5.658,5.658,0,0,0-.666,2.352c0,1,.04,1.01.273,1.08,2.7.8,7.34,2.4,9.389,3.241A19.213,19.213,0,0,1,69,88.253Z" transform="translate(-48 -48)" fill="#f4f4f4"/>
</svg>
